<svg xmlns="http://www.w3.org/2000/svg" shape-rendering="geometricPrecision" text-rendering="geometricPrecision" image-rendering="optimizeQuality" fill-rule="evenodd" clip-rule="evenodd" viewBox="0 0 512 284.495"><path fill="#fff" fill-rule="nonzero" d="M225.781 253.399l-18.825-51.005s-30.493 34.028-76.19 34.028c-40.523 0-69.223-35.2-69.223-91.497 0-72.097 36.381-97.892 72.098-97.892 51.584 0 67.996 33.412 82.109 76.207l18.825 58.591c18.811 56.895 54.021 102.609 155.398 102.609 72.7 0 122.027-22.31 122.027-80.915 0-47.488-27.008-72.097-77.417-83.897l-37.495-8.193c-25.808-5.884-33.412-16.412-33.412-34.028 0-19.906 15.806-31.711 41.614-31.711 28.185 0 43.393 10.591 45.687 35.812l58.6-7.002C504.874 21.694 468.493 0 408.693 0c-52.812 0-104.406 19.906-104.406 83.907 0 39.903 19.391 65.082 68.006 76.8l39.903 9.401c29.877 7.011 39.894 19.391 39.894 36.391 0 21.694-21.097 30.493-60.991 30.493-59.211 0-83.906-31.108-97.905-73.895l-19.391-58.591C249.299 28.208 209.998.091 132.012.091 45.792.091 0 54.591 0 147.297c0 89.093 45.697 137.198 127.916 137.198 66.2 0 97.892-31.104 97.892-31.104l-.027.008z"/></svg>